<svg id="Camada_1" data-name="Camada 1" xmlns="http://www.w3.org/2000/svg" viewBox="0 0 1000 358.71117"><defs><style>.cls-1{fill:#fff;}.cls-2{fill:#ac182e;}</style></defs><title>logo-instar-tecnologia-branca</title><g id="LOGO"><g id="ISO"><path class="cls-1" d="M151.1,113.2c2.6-7.7,6.3-14.4,12.5-19.7,6.7-5.7,14.6-8.4,23.3-9,3.1-.2,6.3-.1,9.4,0a35.49317,35.49317,0,0,1,12.8,3.2c11.2,4.7,20.7,11.8,29.1,20.5,17,17.7,27.8,38.8,33.4,62.5a122.63785,122.63785,0,0,1,3.3,28.9,106.79854,106.79854,0,0,1-6,36.8,251.50439,251.50439,0,0,1-10.6,24.5c-9.8,20.6-22.3,39.6-36.3,57.5-9.5,12.2-19.5,24.2-29.3,36.2-2.7,3.3-5.4,6.6-8.3,9.7a46.41167,46.41167,0,0,1-18.3,12.5c-11.7,4.3-23.1,3.2-33.4-3.5-14.2-9.1-21.2-22.2-20.2-39a35.79611,35.79611,0,0,1,3.7-13.6,142.06677,142.06677,0,0,1,21.5-31.2,4.22742,4.22742,0,0,1,3.5-1.5q37.8-1.8,62.5-30a91.42487,91.42487,0,0,0,21.8-46.2c3.3-20.6,0-40-11.3-57.9-7-11.1-16.5-19.7-27.8-26.6a125.70222,125.70222,0,0,0-33.5-13.7C152.4,113.5,151.9,113.4,151.1,113.2Z" transform="translate(0 -20.64442)"/><path class="cls-1" d="M123.8,286.8c-2.6,7.7-6.3,14.4-12.5,19.7-6.7,5.7-14.6,8.4-23.3,9-3.1.2-6.3.1-9.4,0a35.49308,35.49308,0,0,1-12.8-3.2c-11.2-4.7-20.7-11.8-29.1-20.5C19.7,274.1,8.9,253,3.3,229.3A127.4676,127.4676,0,0,1,0,200.4a106.79834,106.79834,0,0,1,6-36.8,251.503,251.503,0,0,1,10.6-24.5c9.8-20.6,22.3-39.6,36.3-57.5,9.5-12.2,19.5-24.2,29.3-36.2,2.7-3.3,5.4-6.6,8.3-9.7a46.41142,46.41142,0,0,1,18.3-12.5c11.7-4.3,23.1-3.2,33.4,3.5,14.2,9.1,21.2,22.2,20.2,39a35.79592,35.79592,0,0,1-3.7,13.6,142.06606,142.06606,0,0,1-21.5,31.2,4.22745,4.22745,0,0,1-3.5,1.5q-37.8,1.8-62.5,30a91.425,91.425,0,0,0-21.8,46.2c-3.3,20.6,0,40,11.3,57.9,7,11.1,16.5,19.7,27.8,26.6A125.70277,125.70277,0,0,0,122,286.4C122.5,286.5,123.1,286.6,123.8,286.8Z" transform="translate(0 -20.64442)"/><path class="cls-2" d="M60.4,200.6c.2-23.5,9.3-42.2,26.8-57a75.457,75.457,0,0,1,37.9-17.1c23.8-3.5,45.2,2.3,63.6,17.7,11.4,9.6,19.5,21.5,23.4,35.9,11,40.5-13.2,82.5-54.8,93.3-42.8,11.1-85.7-15-95.2-57.7A81.23351,81.23351,0,0,1,60.4,200.6Z" transform="translate(0 -20.64442)"/></g><g id="INSTAR"><path class="cls-1" d="M822.5,229.8v23.5a18.46084,18.46084,0,0,1-33.19995,11.4,19.70442,19.70442,0,0,1-3.7-11.5c.1-13.5.1-27.1,0-40.6a46.14905,46.14905,0,0,0-1.3-11.1c-2-8.5-7.8-13.4-16.2-15.4a36.89979,36.89979,0,0,0-16.2,0,21.96867,21.96867,0,0,0-15.4,11.7,14.3769,14.3769,0,0,0-1.6,6.7c0,3.3.1,6.6,0,9.9a18.526,18.526,0,0,0,3.3,11,20.70237,20.70237,0,0,0,16.7,10.1,54.904,54.904,0,0,0,5.8.3,18.52743,18.52743,0,0,1,16.6,12.1,17.18349,17.18349,0,0,1-4.5,18.8,18.90555,18.90555,0,0,1-14.1,5.5,69.17052,69.17052,0,0,1-26.2-5.6,57.73979,57.73979,0,0,1-22.4-17.7c-6.6-8.4-10.1-18.2-12.1-28.4a42.00337,42.00337,0,0,1,0-15c.6-3.7,1.3-7.4,1.9-11a44.87558,44.87558,0,0,1,3.1-9.6,58.72962,58.72962,0,0,1,27.3-29.6,55.62869,55.62869,0,0,1,21.1-6,78.69006,78.69006,0,0,1,24.7,1.2,56.64274,56.64274,0,0,1,32.4,19.7c4,4.9,7.6,10.1,9.7,16.1a75.62846,75.62846,0,0,1,4.3,24.5Z" transform="translate(0 -20.64442)"/><path class="cls-1" d="M375.5,229.9c0,8.1.1,16.2,0,24.3a18.55153,18.55153,0,0,1-13.6,17.4c-7.6,2.1-17.9-.4-22.1-11.6a23.35342,23.35342,0,0,1-1.2-6.4c-.1-14-.2-28.1,0-42.1a76.53879,76.53879,0,0,1,2.6-17.8c4.3-16.1,13.5-28.7,28.2-37.2,7.6-4.4,15.9-6.5,24.6-7.3a78.42547,78.42547,0,0,1,23.2,1.3,56.0784,56.0784,0,0,1,32.3,19.7c3.9,4.7,7.3,9.6,9.4,15.3a73.74766,73.74766,0,0,1,4.6,25v43.2a18.54252,18.54252,0,0,1-13.1,17.7c-7.5,2.3-17.8.1-22.3-10.8a17.7765,17.7765,0,0,1-1.4-7.2c0-13.6.1-27.2,0-40.8a46.147,46.147,0,0,0-1.3-11.1c-2-8.5-7.9-13.3-16.2-15.3a37.20994,37.20994,0,0,0-16.6,0A22.31019,22.31019,0,0,0,377,198.1a15.18384,15.18384,0,0,0-1.6,6.9c.1,8.2.1,16.6.1,24.9Z" transform="translate(0 -20.64442)"/><path class="cls-1" d="M612.6,170.7V124.1a25.72476,25.72476,0,0,1,.9-6.7c3.3-11.1,19.2-17.6,29.8-8a18.00688,18.00688,0,0,1,6.2,13.7v90.8c0,6.8,2.8,12.1,7.7,16.5a20.48561,20.48561,0,0,0,12.4,5.1c2.1.2,4.3.3,6.4.3,9.6,0,20.9,11,16.7,23.7-1.9,5.7-8.6,12.6-17.2,12.6-10.4.1-20.5-1.7-29.7-6.4-14-7.1-24.1-18-29.2-32.9a76.0619,76.0619,0,0,1-3.1-10.3,74.62919,74.62919,0,0,1-1-11.6C612.6,197.7,612.6,184.2,612.6,170.7Z" transform="translate(0 -20.64442)"/><path class="cls-1" d="M915.8,148.9h25.1a18.8621,18.8621,0,0,1,18.4,15.4,15.9556,15.9556,0,0,1-1.8,11.1c-3.8,6.2-9.2,10-16.8,10H897.2a40.36233,40.36233,0,0,0-9.8,1.1,22.10042,22.10042,0,0,0-14.2,11.1,15.873,15.873,0,0,0-1.8,7.7v47.2a25.27938,25.27938,0,0,1-.3,4.8c-1.4,6.9-5.7,11.5-12.2,13.9a17.08937,17.08937,0,0,1-17.7-3.1,18.61426,18.61426,0,0,1-6.6-12.5c-.1-1.1-.1-2.3-.1-3.4V213.3a74.3669,74.3669,0,0,1,2.6-19.4c6.2-22.1,20-37,42.8-43.1a63.96483,63.96483,0,0,1,16.4-1.8c6.49994-.2,12.99994-.1,19.49994-.1Z" transform="translate(0 -20.64442)"/><path class="cls-1" d="M519.6,272.3H494.9a20.88213,20.88213,0,0,1-7.4-1.2c-10.3-3.7-16.5-18.4-7.7-28.6a18.66321,18.66321,0,0,1,13.4-6.6,26.1519,26.1519,0,0,1,2.8,0h41.8a33.84029,33.84029,0,0,0,10-1.2,21.77159,21.77159,0,0,0,13.9-12.1c1.5-3.2,1.6-6.8,2-10.3.1-1.4.1-2.8.3-4.2,1-7.5,5.6-12.2,12.6-14.7,6.8-2.4,13-.9,18.2,4.1a18.10642,18.10642,0,0,1,5.9,14.2c-.6,14.3-4.3,27.6-13.6,38.9-9.8,12-22.5,19.2-38.1,21-4.2.5-8.4.6-12.6.7C530.8,272.4,525.2,272.3,519.6,272.3Z" transform="translate(0 -20.64442)"/><path class="cls-1" d="M561.1,185.3c-6.3,0-12.6.1-18.9,0a77.35379,77.35379,0,0,0-13.6,1.3,17.62784,17.62784,0,0,0-11.3,7.1,25.271,25.271,0,0,0-4.7,14,56.51456,56.51456,0,0,1-.4,5.9c-1.3,7-5.7,11.7-12.2,14.1a16.87517,16.87517,0,0,1-17.8-3.3,18.10767,18.10767,0,0,1-6.5-13.6,72.37,72.37,0,0,1,1.4-15.4,54.108,54.108,0,0,1,14.9-27.8c7-7.1,15.1-12.8,24.9-15.6a74.85392,74.85392,0,0,1,20.5-3.1c14.9-.1,29.9.1,44.8-.1,11.2-.1,21.8,11.8,17.5,24.1-2.1,6.1-9.5,12.6-17.3,12.3h-.4C575,185.3,568.1,185.3,561.1,185.3Z" transform="translate(0 -20.64442)"/><path class="cls-1" d="M326.7,210.7v42.5c0,4.9-1.3,9.2-4.7,12.8-7.7,8.2-17.9,7.6-24.2,3a18.62119,18.62119,0,0,1-7.9-14.8V168.3a23.2454,23.2454,0,0,1,.4-5.3c1.7-7.2,6.5-11.4,13.4-13.4,6.7-1.9,12.6-.1,17.4,4.8a18.4209,18.4209,0,0,1,5.6,13.5C326.6,182.2,326.7,196.4,326.7,210.7Z" transform="translate(0 -20.64442)"/><path class="cls-2" d="M308.4,144.5a18.23506,18.23506,0,0,1-18.6-18.1c0-9.9,8.3-17.9,18.5-17.9,10.1,0,18.3,8,18.4,17.7A18.22835,18.22835,0,0,1,308.4,144.5Z" transform="translate(0 -20.64442)"/><path class="cls-2" d="M538.3,227.9a18.235,18.235,0,0,1-18.6-18.1c0-9.9,8.3-17.9,18.5-17.9,10.1,0,18.3,8,18.4,17.7A18.22841,18.22841,0,0,1,538.3,227.9Z" transform="translate(0 -20.64442)"/><path class="cls-2" d="M672.4,173.2a18.235,18.235,0,0,1-18.6-18.1c0-9.9,8.3-17.9,18.5-17.9,10.1,0,18.3,8,18.4,17.7A18.22848,18.22848,0,0,1,672.4,173.2Z" transform="translate(0 -20.64442)"/></g><g id="_" data-name="®"><path class="cls-1" d="M990.7,134.4h-3.4a1.26856,1.26856,0,0,1-1.3-.7l-2.7-4.6c-.1-.2-.3-.3-.4-.4a1.48271,1.48271,0,0,0-.7-.1h-.9v5.9h-3.7v-16h5.2a9.08642,9.08642,0,0,1,3,.4,5.36378,5.36378,0,0,1,2,1,3.269,3.269,0,0,1,1.1,1.5,5.847,5.847,0,0,1,.4,1.9,7.71611,7.71611,0,0,1-.2,1.5,3.099,3.099,0,0,1-.6,1.3,4.73986,4.73986,0,0,1-1,1,6.37669,6.37669,0,0,1-1.4.8,3.03924,3.03924,0,0,1,.7.5,4.34629,4.34629,0,0,1,.6.7Zm-7.9-8.5a5.06627,5.06627,0,0,0,1.3-.2,2.62208,2.62208,0,0,0,.9-.5,2.1769,2.1769,0,0,0,.5-.8,2.959,2.959,0,0,0,.2-1,1.86481,1.86481,0,0,0-.7-1.6,3.2811,3.2811,0,0,0-2.1-.6h-1.5v4.7Z" transform="translate(0 -20.64442)"/><path class="cls-1" d="M983.4,143a16.6,16.6,0,1,1,16.6-16.6A16.62292,16.62292,0,0,1,983.4,143Zm0-30.1a13.5,13.5,0,1,0,13.5,13.5A13.50741,13.50741,0,0,0,983.4,112.9Z" transform="translate(0 -20.64442)"/></g></g><g id="TECNOLOGIA"><path class="cls-1" d="M310.4,308.4h-7.3v21.1h-6V308.4h-7.3v-4.8h20.6v4.8Z" transform="translate(0 -20.64442)"/><path class="cls-1" d="M358.5,308.3v6h8.1v4.4h-8.1v6.2h10.6v4.6H352.4V303.6h16.7v4.6H358.5Z" transform="translate(0 -20.64442)"/><path class="cls-1" d="M428.8,322.8a.6012.6012,0,0,1,.4.1c.1.1.3.1.4.3l2.4,2.5a9.15243,9.15243,0,0,1-3.9,3.1,13.67381,13.67381,0,0,1-5.6,1,12.85078,12.85078,0,0,1-5.3-1,11.539,11.539,0,0,1-4-2.8,12.6727,12.6727,0,0,1-2.5-4.2,16.05567,16.05567,0,0,1,0-10.6,12.91246,12.91246,0,0,1,2.6-4.2,10.49456,10.49456,0,0,1,4.1-2.7,12.69461,12.69461,0,0,1,5.2-1,11.154,11.154,0,0,1,2.7.3,13.70034,13.70034,0,0,1,2.4.7,21.15993,21.15993,0,0,1,2.1,1.1,11.5112,11.5112,0,0,1,1.7,1.4l-2,2.7c-.1.2-.3.3-.5.5a1.44521,1.44521,0,0,1-.7.2,1.26838,1.26838,0,0,1-.6-.1l-.6-.3a4.34827,4.34827,0,0,0-.7-.4,3.55182,3.55182,0,0,0-.9-.4,4.21969,4.21969,0,0,0-1.2-.3,8.083,8.083,0,0,0-1.6-.1,5.9541,5.9541,0,0,0-2.7.6,6.524,6.524,0,0,0-2.1,1.6,7.22213,7.22213,0,0,0-1.4,2.6,12.5,12.5,0,0,0,0,7,7.40052,7.40052,0,0,0,1.5,2.6,6.73548,6.73548,0,0,0,4.9,2.2,7.56868,7.56868,0,0,0,1.5-.1,4.96235,4.96235,0,0,0,1.3-.3,3.69693,3.69693,0,0,0,1.1-.5,7.00736,7.00736,0,0,0,1-.8,2.185,2.185,0,0,1,.5-.3C428.5,323.10013,428.6,322.8,428.8,322.8Z" transform="translate(0 -20.64442)"/><path class="cls-1" d="M496.3,303.6v25.9h-3.1a4.29777,4.29777,0,0,1-1.2-.2,2.16574,2.16574,0,0,1-.9-.8l-12.2-15.4c0,.5.1.9.1,1.3v15.1h-5.3V303.6h3.9c.2,0,.3.1.5.1.1.1.3.2.4.3a2.18107,2.18107,0,0,1,.4.5L491.2,320a7.08412,7.08412,0,0,1-.1-1.4v-15Z" transform="translate(0 -20.64442)"/><path class="cls-1" d="M565.8,316.6a12.69469,12.69469,0,0,1-1,5.2,13.16522,13.16522,0,0,1-2.7,4.2,13.43245,13.43245,0,0,1-4.2,2.8,14.16345,14.16345,0,0,1-5.5,1,13.82631,13.82631,0,0,1-5.5-1,12.81045,12.81045,0,0,1-4.3-2.8,11.66109,11.66109,0,0,1-2.7-4.2,15.02387,15.02387,0,0,1-1-5.2,12.69471,12.69471,0,0,1,1-5.2,13.16507,13.16507,0,0,1,2.7-4.2,12.80969,12.80969,0,0,1,4.3-2.8,15.625,15.625,0,0,1,11,0,11.471,11.471,0,0,1,4.2,2.8,11.6612,11.6612,0,0,1,2.7,4.2A12.69471,12.69471,0,0,1,565.8,316.6Zm-6.1,0a12.85752,12.85752,0,0,0-.5-3.5,7.22177,7.22177,0,0,0-1.4-2.6,5.33044,5.33044,0,0,0-2.3-1.6,8.3082,8.3082,0,0,0-6.19995,0,6.34138,6.34138,0,0,0-2.3,1.6,7.2236,7.2236,0,0,0-1.4,2.6,12.30478,12.30478,0,0,0-.5,3.5,12.85763,12.85763,0,0,0,.5,3.5,7.22142,7.22142,0,0,0,1.4,2.6,5.33044,5.33044,0,0,0,2.3,1.6,7.45491,7.45491,0,0,0,3.1.6,7.79042,7.79042,0,0,0,3.1-.6,6.34146,6.34146,0,0,0,2.3-1.6,7.22356,7.22356,0,0,0,1.4-2.6A12.85763,12.85763,0,0,0,559.7,316.6Z" transform="translate(0 -20.64442)"/><path class="cls-1" d="M624,324.7v4.8H608.4V303.6h6v21.1Z" transform="translate(0 -20.64442)"/><path class="cls-1" d="M690.9,316.6a12.69453,12.69453,0,0,1-1,5.2,13.16487,13.16487,0,0,1-2.7,4.2,13.43229,13.43229,0,0,1-4.2,2.8,14.16345,14.16345,0,0,1-5.5,1,13.82631,13.82631,0,0,1-5.5-1,12.81049,12.81049,0,0,1-4.3-2.8,11.6612,11.6612,0,0,1-2.7-4.2,15.02364,15.02364,0,0,1-1-5.2,12.69471,12.69471,0,0,1,1-5.2,13.16522,13.16522,0,0,1,2.7-4.2,12.80973,12.80973,0,0,1,4.3-2.8,15.625,15.625,0,0,1,11,0,11.471,11.471,0,0,1,4.2,2.8,11.66106,11.66106,0,0,1,2.7,4.2A12.69552,12.69552,0,0,1,690.9,316.6Zm-6.2,0a12.85752,12.85752,0,0,0-.5-3.5,7.22177,7.22177,0,0,0-1.4-2.6,5.33044,5.33044,0,0,0-2.3-1.6,8.3082,8.3082,0,0,0-6.19995,0,6.34138,6.34138,0,0,0-2.3,1.6,7.2236,7.2236,0,0,0-1.4,2.6,12.30478,12.30478,0,0,0-.5,3.5,12.85763,12.85763,0,0,0,.5,3.5,7.22142,7.22142,0,0,0,1.4,2.6,5.33044,5.33044,0,0,0,2.3,1.6,7.45491,7.45491,0,0,0,3.1.6,7.79042,7.79042,0,0,0,3.1-.6,6.34146,6.34146,0,0,0,2.3-1.6,7.22356,7.22356,0,0,0,1.4-2.6A9.89256,9.89256,0,0,0,684.7,316.6Z" transform="translate(0 -20.64442)"/><path class="cls-1" d="M745.9,316.1h9.2V327a11.85443,11.85443,0,0,1-4.2,2.1,18.41778,18.41778,0,0,1-4.7.7,15.361,15.361,0,0,1-5.8-1,14.8436,14.8436,0,0,1-4.5-2.8,13.71419,13.71419,0,0,1-2.9-4.2,13.91034,13.91034,0,0,1,2.7-14.8,11.24466,11.24466,0,0,1,4.3-2.7,14.83986,14.83986,0,0,1,5.7-1,13.85607,13.85607,0,0,1,3,.3,19.73025,19.73025,0,0,1,2.6.7,15.05484,15.05484,0,0,1,2.2,1.1,8.62154,8.62154,0,0,1,1.8,1.4l-1.7,2.6a1.779,1.779,0,0,1-1.1.8,1.9,1.9,0,0,1-1.4-.3c-.5-.3-.9-.5-1.3-.7a6.94517,6.94517,0,0,0-1.3-.5c-.4-.1-.9-.2-1.4-.3a8.08285,8.08285,0,0,0-1.6-.1,7.30665,7.30665,0,0,0-3,.6,6.57506,6.57506,0,0,0-2.3,1.7,9.34139,9.34139,0,0,0-1.5,2.6,11.59224,11.59224,0,0,0-.5,3.4,10.63655,10.63655,0,0,0,.6,3.7,7.179,7.179,0,0,0,1.6,2.7,7.3859,7.3859,0,0,0,2.5,1.7,8.29113,8.29113,0,0,0,3.2.6,12.30993,12.30993,0,0,0,2-.2,4.92356,4.92356,0,0,0,1.7-.6v-3.9h-2.6a1.22247,1.22247,0,0,1-.9-.3,1.13546,1.13546,0,0,1-.3-.8V316.1Z" transform="translate(0 -20.64442)"/><path class="cls-1" d="M804.2,329.5h-6V303.6h6Z" transform="translate(0 -20.64442)"/><path class="cls-1" d="M871.5,329.5h-4.7a2.07823,2.07823,0,0,1-2-1.3l-1.5-4.5h-9.8l-1.5,4.5a2.75685,2.75685,0,0,1-.7.9,1.84408,1.84408,0,0,1-1.3.4h-4.7l10-25.9h6.1Zm-9.5-9.9-2.4-7.1c-.2-.5-.4-1-.6-1.6s-.4-1.3-.6-2c-.2.7-.4,1.4-.6,2s-.4,1.1-.6,1.6l-2.4,7.1Z" transform="translate(0 -20.64442)"/></g></svg>